<svg xmlns="http://www.w3.org/2000/svg" xmlns:xlink="http://www.w3.org/1999/xlink" width="512" zoomAndPan="magnify" viewBox="0 0 384 383.999986" height="512" preserveAspectRatio="xMidYMid meet" version="1.0"><defs><clipPath id="2890485b03"><path d="M 38.398438 111 L 345.898438 111 L 345.898438 311.441406 L 38.398438 311.441406 Z M 38.398438 111 " clip-rule="nonzero"/></clipPath><clipPath id="81e02a8e0e"><path d="M 190 82 L 345.898438 82 L 345.898438 120 L 190 120 Z M 190 82 " clip-rule="nonzero"/></clipPath><clipPath id="8b2acbb8b6"><path d="M 38.398438 72.191406 L 217 72.191406 L 217 120 L 38.398438 120 Z M 38.398438 72.191406 " clip-rule="nonzero"/></clipPath></defs><path fill="#f5f5f5" d="M 340.507812 297.652344 L 340.507812 117.808594 L 43.722656 117.808594 L 43.722656 297.652344 C 43.722656 301.683594 47.054688 305.007812 51.167969 305.007812 L 333.132812 305.007812 C 337.171875 305.007812 340.507812 301.683594 340.507812 297.652344 Z M 340.507812 297.652344 " fill-opacity="1" fill-rule="evenodd"/><g clip-path="url(#2890485b03)"><path fill="#64798a" d="M 330.15625 311.441406 L 54.074219 311.441406 C 45.496094 311.441406 38.476562 304.441406 38.476562 295.882812 L 38.476562 115.542969 C 38.476562 113.210938 40.320312 111.371094 42.660156 111.371094 L 341.570312 111.371094 C 343.910156 111.371094 345.824219 113.210938 345.824219 115.542969 L 345.824219 295.8125 C 345.824219 304.441406 338.804688 311.441406 330.15625 311.441406 Z M 46.84375 119.714844 L 46.84375 295.8125 C 46.84375 299.84375 50.105469 303.027344 54.074219 303.027344 L 330.15625 303.027344 C 334.125 303.027344 337.386719 299.773438 337.386719 295.8125 L 337.386719 119.714844 Z M 46.84375 119.714844 " fill-opacity="1" fill-rule="evenodd"/></g><g clip-path="url(#81e02a8e0e)"><path fill="#2a3e4d" d="M 207.214844 119.714844 L 190.554688 88.175781 C 189.917969 86.902344 189.917969 85.347656 190.695312 84.074219 C 191.476562 82.871094 192.824219 82.09375 194.3125 82.09375 L 324.835938 82.09375 C 336.394531 82.09375 345.824219 91.429688 345.824219 103.027344 L 345.824219 119.714844 Z M 207.214844 119.714844 " fill-opacity="1" fill-rule="evenodd"/></g><g clip-path="url(#8b2acbb8b6)"><path fill="#3a556a" d="M 38.476562 119.714844 L 38.476562 98.074219 C 38.476562 83.789062 50.105469 72.191406 64.425781 72.191406 L 189.066406 72.191406 C 190.625 72.191406 192.113281 73.039062 192.824219 74.453125 L 215.722656 117.808594 C 216.007812 118.371094 216.148438 119.082031 216.148438 119.714844 Z M 38.476562 119.714844 " fill-opacity="1" fill-rule="evenodd"/></g><path fill="#2a3e4d" d="M 74.917969 110.382812 C 68.113281 110.382812 62.582031 104.863281 62.582031 98.074219 C 62.582031 91.285156 68.113281 85.769531 74.917969 85.769531 C 81.726562 85.769531 87.253906 91.285156 87.253906 98.074219 C 87.253906 104.863281 81.726562 110.382812 74.917969 110.382812 Z M 74.917969 110.382812 " fill-opacity="1" fill-rule="evenodd"/><path fill="#2a3e4d" d="M 105.546875 110.382812 C 98.742188 110.382812 93.210938 104.863281 93.210938 98.074219 C 93.210938 91.285156 98.742188 85.769531 105.546875 85.769531 C 112.351562 85.769531 117.882812 91.285156 117.882812 98.074219 C 117.882812 104.863281 112.351562 110.382812 105.546875 110.382812 Z M 105.546875 110.382812 " fill-opacity="1" fill-rule="evenodd"/><path fill="#2a3e4d" d="M 136.175781 110.382812 C 129.367188 110.382812 123.839844 104.863281 123.839844 98.074219 C 123.839844 91.285156 129.367188 85.769531 136.175781 85.769531 C 142.980469 85.769531 148.511719 91.285156 148.511719 98.074219 C 148.511719 104.863281 142.980469 110.382812 136.175781 110.382812 Z M 136.175781 110.382812 " fill-opacity="1" fill-rule="evenodd"/><path fill="#fcd462" d="M 74.917969 106.28125 C 70.382812 106.28125 66.695312 102.601562 66.695312 98.074219 C 66.695312 93.550781 70.382812 89.871094 74.917969 89.871094 C 79.457031 89.871094 83.144531 93.550781 83.144531 98.074219 C 83.144531 102.601562 79.457031 106.28125 74.917969 106.28125 Z M 74.917969 106.28125 " fill-opacity="1" fill-rule="evenodd"/><path fill="#27a2db" d="M 105.546875 106.28125 C 101.007812 106.28125 97.324219 102.601562 97.324219 98.074219 C 97.324219 93.550781 101.007812 89.871094 105.546875 89.871094 C 110.085938 89.871094 113.769531 93.550781 113.769531 98.074219 C 113.769531 102.601562 110.085938 106.28125 105.546875 106.28125 Z M 105.546875 106.28125 " fill-opacity="1" fill-rule="evenodd"/><path fill="#44c4a1" d="M 136.175781 106.28125 C 131.636719 106.28125 127.949219 102.601562 127.949219 98.074219 C 127.949219 93.550781 131.636719 89.871094 136.175781 89.871094 C 140.710938 89.871094 144.398438 93.550781 144.398438 98.074219 C 144.398438 102.601562 140.710938 106.28125 136.175781 106.28125 Z M 136.175781 106.28125 " fill-opacity="1" fill-rule="evenodd"/><path fill="#ef5350" d="M 293.710938 218.019531 L 90.515625 218.019531 C 81.300781 218.019531 73.785156 210.523438 73.785156 201.328125 L 73.785156 152.671875 C 73.785156 143.480469 81.300781 135.984375 90.515625 135.984375 L 293.710938 135.984375 C 302.929688 135.984375 310.445312 143.480469 310.445312 152.671875 L 310.445312 201.328125 C 310.445312 210.523438 302.929688 218.019531 293.710938 218.019531 Z M 293.710938 218.019531 " fill-opacity="1" fill-rule="evenodd"/><path fill="#3b566a" d="M 299.953125 290.933594 L 84.277344 290.933594 C 81.9375 290.933594 80.023438 289.09375 80.023438 286.761719 C 80.023438 284.425781 81.9375 282.585938 84.277344 282.585938 L 299.953125 282.585938 C 302.292969 282.585938 304.207031 284.425781 304.207031 286.761719 C 304.207031 289.09375 302.292969 290.933594 299.953125 290.933594 Z M 299.953125 290.933594 " fill-opacity="1" fill-rule="evenodd"/><path fill="#3b566a" d="M 299.953125 269.152344 L 84.277344 269.152344 C 81.9375 269.152344 80.023438 267.242188 80.023438 264.90625 C 80.023438 262.644531 81.9375 260.734375 84.277344 260.734375 L 299.953125 260.734375 C 302.292969 260.734375 304.207031 262.644531 304.207031 264.90625 C 304.207031 267.242188 302.292969 269.152344 299.953125 269.152344 Z M 299.953125 269.152344 " fill-opacity="1" fill-rule="evenodd"/><path fill="#3b566a" d="M 299.953125 247.296875 L 84.277344 247.296875 C 81.9375 247.296875 80.023438 245.460938 80.023438 243.125 C 80.023438 240.792969 81.9375 238.882812 84.277344 238.882812 L 299.953125 238.882812 C 302.292969 238.882812 304.207031 240.792969 304.207031 243.125 C 304.207031 245.460938 302.292969 247.296875 299.953125 247.296875 Z M 299.953125 247.296875 " fill-opacity="1" fill-rule="evenodd"/><path fill="#f5f5f5" d="M 135.890625 181.171875 C 133.550781 181.171875 131.636719 179.335938 131.636719 177 C 131.636719 174.667969 133.550781 172.828125 135.890625 172.828125 C 139.507812 172.828125 142.414062 169.859375 142.414062 166.25 C 142.414062 162.644531 139.507812 159.675781 135.890625 159.675781 L 126.886719 159.675781 L 126.886719 177 C 126.886719 179.335938 124.972656 181.246094 122.703125 181.246094 C 120.363281 181.246094 118.449219 179.335938 118.449219 177 L 118.449219 155.5 C 118.449219 153.167969 120.363281 151.328125 122.703125 151.328125 L 135.890625 151.328125 C 144.117188 151.328125 150.851562 157.976562 150.851562 166.25 C 150.851562 174.453125 144.117188 181.171875 135.890625 181.171875 Z M 135.890625 181.171875 " fill-opacity="1" fill-rule="evenodd"/><path fill="#f5f5f5" d="M 135.890625 202.742188 L 122.703125 202.742188 C 120.363281 202.742188 118.449219 200.832031 118.449219 198.5 L 118.449219 177 C 118.449219 174.667969 120.363281 172.828125 122.703125 172.828125 L 135.890625 172.828125 C 144.117188 172.828125 150.851562 179.546875 150.851562 187.75 C 150.851562 195.953125 144.117188 202.742188 135.890625 202.742188 Z M 126.886719 194.328125 L 135.890625 194.328125 C 139.507812 194.328125 142.414062 191.355469 142.414062 187.75 C 142.414062 184.144531 139.507812 181.246094 135.890625 181.246094 L 126.886719 181.246094 Z M 126.886719 194.328125 " fill-opacity="1" fill-rule="evenodd"/><path fill="#f5f5f5" d="M 180.769531 202.742188 L 159.644531 202.742188 C 157.375 202.742188 155.460938 200.832031 155.460938 198.5 L 155.460938 155.5 C 155.460938 153.167969 157.375 151.328125 159.644531 151.328125 C 161.984375 151.328125 163.898438 153.167969 163.898438 155.5 L 163.898438 194.328125 L 180.769531 194.328125 C 183.109375 194.328125 185.023438 196.238281 185.023438 198.5 C 185.023438 200.832031 183.109375 202.742188 180.769531 202.742188 Z M 180.769531 202.742188 " fill-opacity="1" fill-rule="evenodd"/><path fill="#f5f5f5" d="M 207.5 202.742188 C 197.644531 202.742188 189.5625 194.679688 189.5625 184.851562 L 189.5625 169.152344 C 189.5625 159.25 197.644531 151.257812 207.5 151.257812 C 217.355469 151.257812 225.367188 159.25 225.367188 169.152344 L 225.367188 184.851562 C 225.367188 194.679688 217.355469 202.742188 207.5 202.742188 Z M 207.5 159.675781 C 202.253906 159.675781 198 163.917969 198 169.152344 L 198 184.851562 C 198 190.085938 202.253906 194.328125 207.5 194.328125 C 212.746094 194.328125 217 190.085938 217 184.851562 L 217 169.152344 C 217 163.917969 212.746094 159.675781 207.5 159.675781 Z M 207.5 159.675781 " fill-opacity="1" fill-rule="evenodd"/><path fill="#f5f5f5" d="M 247.910156 202.742188 C 237.984375 202.742188 229.972656 194.679688 229.972656 184.851562 L 229.972656 169.152344 C 229.972656 159.25 237.984375 151.257812 247.910156 151.257812 C 251.882812 151.257812 255.640625 152.601562 258.832031 155.007812 C 260.671875 156.492188 260.957031 159.109375 259.539062 160.945312 C 258.121094 162.714844 255.5 163.070312 253.65625 161.65625 C 251.953125 160.382812 249.96875 159.675781 247.839844 159.675781 C 242.664062 159.675781 238.339844 163.917969 238.339844 169.152344 L 238.339844 184.851562 C 238.339844 190.085938 242.59375 194.328125 247.839844 194.328125 C 251.597656 194.328125 254.789062 192.207031 256.347656 189.023438 L 249.542969 189.023438 C 247.203125 189.023438 245.359375 187.183594 245.359375 184.851562 C 245.359375 182.515625 247.203125 180.679688 249.542969 180.679688 L 261.523438 180.679688 C 263.863281 180.679688 265.777344 182.515625 265.777344 184.851562 C 265.777344 194.679688 257.765625 202.742188 247.910156 202.742188 Z M 247.910156 202.742188 " fill-opacity="1" fill-rule="evenodd"/></svg>