<svg xmlns="http://www.w3.org/2000/svg" xmlns:xlink="http://www.w3.org/1999/xlink" width="512" zoomAndPan="magnify" viewBox="0 0 384 383.999986" height="512" preserveAspectRatio="xMidYMid meet" version="1.0"><defs><clipPath id="ef079cb1a7"><path d="M 38.398438 53.761719 L 345.898438 53.761719 L 345.898438 330.511719 L 38.398438 330.511719 Z M 38.398438 53.761719 " clip-rule="nonzero"/></clipPath></defs><path fill="#f9ae1c" d="M 43.527344 309.148438 C 43.527344 306.367188 44.25 303.605469 45.628906 301.160156 L 178.054688 67.375 C 181.019531 62.128906 186.585938 58.886719 192.609375 58.886719 C 198.65625 58.886719 204.242188 62.148438 207.203125 67.414062 L 338.6875 301.179688 C 340.050781 303.605469 340.769531 306.347656 340.769531 309.148438 C 340.769531 318.117188 333.503906 325.386719 324.535156 325.386719 L 59.746094 325.386719 C 50.796875 325.386719 43.527344 318.117188 43.527344 309.148438 " fill-opacity="1" fill-rule="nonzero"/><path fill="#f79721" d="M 338.6875 301.179688 L 255.429688 153.175781 C 220.578125 245.386719 156.875 297.21875 105.789062 325.386719 L 324.535156 325.386719 C 333.503906 325.386719 340.769531 318.117188 340.769531 309.148438 C 340.769531 306.347656 340.050781 303.605469 338.6875 301.179688 " fill-opacity="1" fill-rule="nonzero"/><path fill="#e03835" d="M 156.277344 248.511719 L 146.027344 248.511719 L 146.027344 263.886719 L 137.039062 263.886719 L 145.90625 224.007812 L 135.898438 221.765625 L 125.648438 267.890625 C 125.304688 269.410156 125.6875 271.011719 126.648438 272.214844 C 127.628906 273.433594 129.089844 274.136719 130.652344 274.136719 L 146.027344 274.136719 L 146.027344 284.386719 L 156.277344 284.386719 L 156.277344 274.136719 L 161.402344 274.136719 L 161.402344 263.886719 L 156.277344 263.886719 L 156.277344 248.511719 " fill-opacity="1" fill-rule="nonzero"/><path fill="#e03835" d="M 202.398438 263.886719 C 202.398438 269.53125 197.796875 274.136719 192.148438 274.136719 C 186.503906 274.136719 181.898438 269.53125 181.898438 263.886719 L 181.898438 243.386719 C 181.898438 237.738281 186.503906 233.136719 192.148438 233.136719 C 197.796875 233.136719 202.398438 237.738281 202.398438 243.386719 Z M 192.148438 222.886719 C 180.839844 222.886719 171.652344 232.074219 171.652344 243.386719 L 171.652344 263.886719 C 171.652344 275.195312 180.839844 284.386719 192.148438 284.386719 C 203.460938 284.386719 212.648438 275.195312 212.648438 263.886719 L 212.648438 243.386719 C 212.648438 232.074219 203.460938 222.886719 192.148438 222.886719 " fill-opacity="1" fill-rule="nonzero"/><path fill="#e03835" d="M 258.773438 263.886719 L 253.648438 263.886719 L 253.648438 248.511719 L 243.398438 248.511719 L 243.398438 263.886719 L 234.410156 263.886719 L 243.277344 224.007812 L 233.269531 221.765625 L 223.019531 267.890625 C 222.679688 269.410156 223.058594 271.011719 224.019531 272.214844 C 225 273.433594 226.460938 274.136719 228.023438 274.136719 L 243.398438 274.136719 L 243.398438 284.386719 L 253.648438 284.386719 L 253.648438 274.136719 L 258.773438 274.136719 L 258.773438 263.886719 " fill-opacity="1" fill-rule="nonzero"/><path fill="#e03835" d="M 187.023438 125.511719 L 187.023438 176.761719 L 197.273438 176.761719 L 197.273438 125.511719 L 187.023438 125.511719 " fill-opacity="1" fill-rule="nonzero"/><path fill="#e03835" d="M 187.023438 197.261719 L 197.273438 197.261719 L 197.273438 187.011719 L 187.023438 187.011719 L 187.023438 197.261719 " fill-opacity="1" fill-rule="nonzero"/><g clip-path="url(#ef079cb1a7)"><path fill="#100f0d" d="M 324.535156 320.261719 L 59.746094 320.261719 C 53.636719 320.261719 48.652344 315.273438 48.652344 309.148438 C 48.652344 307.246094 49.152344 305.367188 50.09375 303.703125 L 182.519531 69.894531 C 184.5625 66.273438 188.445312 64.011719 192.609375 64.011719 C 196.792969 64.011719 200.679688 66.273438 202.738281 69.9375 L 334.226562 303.683594 C 335.144531 305.34375 335.644531 307.226562 335.644531 309.148438 C 335.644531 315.273438 330.660156 320.261719 324.535156 320.261719 Z M 211.667969 64.890625 C 207.804688 58.023438 200.496094 53.761719 192.609375 53.761719 C 184.761719 53.761719 177.476562 58.003906 173.59375 64.851562 L 41.1875 298.640625 C 39.363281 301.84375 38.402344 305.484375 38.402344 309.148438 C 38.402344 320.941406 47.972656 330.511719 59.746094 330.511719 L 324.535156 330.511719 C 336.308594 330.511719 345.894531 320.921875 345.894531 309.148438 C 345.894531 305.464844 344.957031 301.863281 343.152344 298.660156 L 211.667969 64.890625 " fill-opacity="1" fill-rule="nonzero"/></g><path fill="#100f0d" d="M 156.277344 248.511719 L 146.027344 248.511719 L 146.027344 263.886719 L 137.039062 263.886719 L 145.90625 224.007812 L 135.898438 221.765625 L 125.648438 267.890625 C 125.304688 269.410156 125.6875 271.011719 126.648438 272.214844 C 127.628906 273.433594 129.089844 274.136719 130.652344 274.136719 L 146.027344 274.136719 L 146.027344 284.386719 L 156.277344 284.386719 L 156.277344 274.136719 L 161.402344 274.136719 L 161.402344 263.886719 L 156.277344 263.886719 L 156.277344 248.511719 " fill-opacity="1" fill-rule="nonzero"/><path fill="#100f0d" d="M 202.398438 263.886719 C 202.398438 269.53125 197.796875 274.136719 192.148438 274.136719 C 186.503906 274.136719 181.898438 269.53125 181.898438 263.886719 L 181.898438 243.386719 C 181.898438 237.738281 186.503906 233.136719 192.148438 233.136719 C 197.796875 233.136719 202.398438 237.738281 202.398438 243.386719 Z M 192.148438 222.886719 C 180.839844 222.886719 171.652344 232.074219 171.652344 243.386719 L 171.652344 263.886719 C 171.652344 275.195312 180.839844 284.386719 192.148438 284.386719 C 203.460938 284.386719 212.648438 275.195312 212.648438 263.886719 L 212.648438 243.386719 C 212.648438 232.074219 203.460938 222.886719 192.148438 222.886719 " fill-opacity="1" fill-rule="nonzero"/><path fill="#100f0d" d="M 253.648438 248.511719 L 243.398438 248.511719 L 243.398438 263.886719 L 234.410156 263.886719 L 243.277344 224.007812 L 233.269531 221.765625 L 223.019531 267.890625 C 222.679688 269.410156 223.058594 271.011719 224.019531 272.214844 C 225 273.433594 226.460938 274.136719 228.023438 274.136719 L 243.398438 274.136719 L 243.398438 284.386719 L 253.648438 284.386719 L 253.648438 274.136719 L 258.773438 274.136719 L 258.773438 263.886719 L 253.648438 263.886719 L 253.648438 248.511719 " fill-opacity="1" fill-rule="nonzero"/><path fill="#100f0d" d="M 197.273438 125.511719 L 187.023438 125.511719 L 187.023438 176.761719 L 197.273438 176.761719 L 197.273438 125.511719 " fill-opacity="1" fill-rule="nonzero"/><path fill="#100f0d" d="M 197.273438 187.011719 L 187.023438 187.011719 L 187.023438 197.261719 L 197.273438 197.261719 L 197.273438 187.011719 " fill-opacity="1" fill-rule="nonzero"/></svg>